<svg width="128" height="100" viewBox="0 0 128 100" fill="none" xmlns="http://www.w3.org/2000/svg">
<g clip-path="url(#clip0_231_164)">
<path d="M92.492 66.1992C93.2609 66.1992 93.8844 65.5795 93.8844 64.8151C93.8844 64.0505 93.2609 63.4308 92.492 63.4308C91.723 63.4308 91.0996 64.0505 91.0996 64.8151C91.0996 65.5795 91.723 66.1992 92.492 66.1992Z" stroke="#F5F5F5" stroke-width="0.5"/>
<path d="M92.1445 65.3343V64.296H92.8408V64.8151L92.4927 64.9882L92.8408 65.3343" stroke="#F5F5F5" stroke-width="0.5" stroke-linecap="square"/>
<path d="M38.3609 75.7154H45.6712V79.1757H34.1836V63.6039H38.3609V75.7154Z" fill="#F5F5F5"/>
<path d="M58.8997 66.3723H50.5452V69.4866H58.2036V72.6011H50.5452V75.7154H58.8997V79.1757H46.7158V63.6039H58.8997V66.3723Z" fill="#F5F5F5"/>
<path d="M74.913 70.5248H68.2988V73.293H74.913V70.5248Z" fill="#F5F5F5"/>
<path d="M74.9129 70.5248H72.1279V78.8296H74.9129V70.5248Z" fill="#F5F5F5"/>
<path d="M74.7843 70.5755C74.8017 70.8036 74.811 71.0344 74.811 71.2674C74.811 75.873 71.3664 79.5968 67.1282 79.5968C62.8899 79.5968 59.4453 75.873 59.4453 71.2674C59.4453 66.662 62.8899 62.9382 67.1282 62.9382C70.5908 62.9382 73.5231 65.4239 74.4805 68.8451H70.6353C69.8979 67.5346 68.6426 66.7932 67.4765 66.7932C65.6801 66.7932 63.6716 68.5521 63.6716 71.4404C63.6716 74.3288 65.6801 76.0877 67.4765 76.0877C69.2727 76.0877 71.2812 74.3288 71.2812 71.4404C71.2812 71.1396 71.259 70.8511 71.2179 70.5755H74.7843Z" fill="#F5F5F5"/>
<path d="M83.4418 63.2577C87.7673 63.2577 91.2743 66.8209 91.2743 71.2166C91.2743 75.6124 87.7673 79.1756 83.4418 79.1756C79.1161 79.1756 75.6094 75.6124 75.6094 71.2166C75.6094 66.8209 79.1161 63.2577 83.4418 63.2577ZM83.4418 66.7183C81.7889 66.7183 79.7865 68.347 79.7865 71.2166C79.7865 74.0865 81.7889 75.7152 83.4418 75.7152C85.0945 75.7152 87.0969 74.0865 87.0969 71.2166C87.0969 68.347 85.0945 66.7183 83.4418 66.7183Z" fill="#F5F5F5"/>
<path d="M26.1773 95.7857H33.4876V99.246H22V83.6742H26.1773V95.7857Z" fill="#F5F5F5"/>
<path d="M46.7161 86.4426H38.3614V89.5569H46.0198V92.6714H38.3614V95.7857H46.7161V99.246H34.5322V83.6742H46.7161V86.4426Z" fill="#F5F5F5"/>
<path d="M105.895 86.4426H97.5401V89.5569H105.198V92.6714H97.5401V95.7857H105.895V99.246H93.7109V83.6742H105.895V86.4426Z" fill="#F5F5F5"/>
<path d="M77.0016 90.9413H70.3877V93.7095H77.0016V90.9413Z" fill="#F5F5F5"/>
<path d="M77.0015 90.9413H74.2168V99.2463H77.0015V90.9413Z" fill="#F5F5F5"/>
<path d="M76.9994 90.9413C77.0166 91.1695 77.0261 91.4003 77.0261 91.6333C77.0261 96.2387 73.5813 99.9626 69.343 99.9626C65.105 99.9626 61.6602 96.2389 61.6602 91.6333C61.6602 87.0278 65.105 83.3041 69.343 83.3041C72.8056 83.3041 75.738 85.7898 76.6956 89.2109H72.8504C72.113 87.9005 70.8577 87.159 69.6914 87.159C67.895 87.159 65.8865 88.9178 65.8865 91.8063C65.8865 94.6946 67.895 96.4536 69.6914 96.4536C71.4878 96.4536 73.4961 94.6946 73.4961 91.8063C73.4961 91.5053 73.4738 91.217 73.4329 90.9413H76.9994Z" fill="#F5F5F5"/>
<path d="M62.0333 99.246H58.3781L57.3685 96.1317H51.7294L50.7196 99.246H47.0645L52.4601 83.6742H56.6374L62.0333 99.246ZM52.6265 93.3633H56.4712L54.5488 87.4325L52.6265 93.3633Z" fill="#F5F5F5"/>
<path d="M82.5709 94.241C82.595 94.4694 82.6626 94.6939 82.7731 94.9064C82.9138 95.176 83.1196 95.4213 83.3789 95.6275C83.6386 95.8342 83.9467 95.9977 84.2861 96.1096C84.5826 96.2072 84.8984 96.2635 85.2184 96.276L85.3558 96.2788C85.6771 96.2788 85.9957 96.2346 86.2975 96.1486L86.4256 96.1096C86.7225 96.0116 86.9954 95.874 87.2332 95.703L87.3328 95.6275C87.5597 95.4468 87.7455 95.2366 87.8827 95.006L87.9384 94.9064C88.0485 94.6949 88.1163 94.4718 88.1406 94.2444V83.6742H92.3179V94.4016H92.3038C92.2558 95.0102 92.0823 95.6092 91.7882 96.1742C91.4382 96.846 90.9255 97.4563 90.279 97.9702L90.1562 98.0657C89.5362 98.5354 88.8118 98.9098 88.02 99.1706L87.8609 99.2215C87.0622 99.4666 86.2128 99.5921 85.3558 99.5921L85.1846 99.5905C84.3857 99.5748 83.5961 99.4499 82.8508 99.2215L82.6917 99.1706C81.8469 98.8925 81.0793 98.4845 80.4324 97.9702C79.7861 97.4563 79.2732 96.846 78.9235 96.1742C78.6294 95.6092 78.4559 95.0102 78.4079 94.4016H78.3936V83.6742H82.5709V94.241Z" fill="#F5F5F5"/>
<path d="M46.0192 41.4572H52.4592L48.2819 59.4513H41.8418L46.0192 41.4572Z" fill="#F5F5F5"/>
<path d="M64.7766 41.3399C67.3464 41.3783 69.3794 43.5439 69.2228 46.1101L69.1691 46.9938L69.0284 48.4393C68.8098 50.6827 66.9556 52.4192 64.6898 52.5015L64.0297 52.525L67.4286 59.4513H60.2924L58.1109 53.1018L56.6371 59.4513H50.1973L54.3746 41.4572L64.6538 41.3395L64.7766 41.3399ZM59.749 46.0453L59.0065 49.2451L62.4471 49.1204C62.6013 48.9552 62.7033 48.7407 62.7236 48.5012L62.8048 47.5445L62.8276 47.1115C62.8594 46.5121 62.3748 46.0111 61.771 46.019L59.749 46.0453Z" fill="#F5F5F5"/>
<path d="M43.2347 46.3018H37.0626L36.5003 48.7242H42.5386L41.4942 53.5686H35.3754L34.0099 59.4513H27.5698L31.7471 41.4572H44.2791L43.2347 46.3018Z" fill="#F5F5F5"/>
<path d="M99.6285 46.3018H94.849L91.7961 59.4513H85.356L88.4089 46.3018H83.4414L84.3116 41.4572H100.673L99.6285 46.3018Z" fill="#F5F5F5"/>
<path d="M72.4205 42.7511C74.3377 41.169 77.2994 40.6654 81.1257 41.1296L83.5445 41.4223L82.9547 46.2316L80.5353 45.938C79.2091 45.7775 78.2047 45.7807 77.4528 45.863C77.1646 45.9904 76.9909 46.2346 76.9445 46.4956C76.8885 46.8119 77 47.3469 77.788 47.804L78.5397 48.2401L78.5292 48.257C79.5303 48.7574 80.928 49.4944 81.8323 50.601C82.3469 51.2304 82.726 52.0046 82.7792 52.9358C82.8322 53.8618 82.5576 54.8525 81.9279 55.9117L81.9066 55.9473C81.0008 57.8322 79.019 58.9012 77.4977 59.4117C75.3046 60.1473 72.6109 60.2972 70.5696 59.7006L68.2324 59.0167L69.6074 54.369L71.9454 55.0525C72.8634 55.3211 74.5207 55.2972 75.9392 54.8213C76.0715 54.7771 76.195 54.7306 76.3104 54.6833C76.6498 54.4553 76.7108 54.2093 76.6988 54.0541C76.6808 53.8238 76.4796 53.4417 75.8485 53.1628L75.2121 52.8821L75.2285 52.8447C73.9078 52.3087 72.3324 51.3664 70.9832 49.3944L70.7767 49.0926L70.6692 48.7449C70.0952 46.8908 70.3567 44.4543 72.4205 42.7511Z" fill="#F5F5F5"/>
<path d="M94.9295 59.2782C95.6984 59.2782 96.3219 58.6585 96.3219 57.8941C96.3219 57.1297 95.6984 56.51 94.9295 56.51C94.1605 56.51 93.5371 57.1297 93.5371 57.8941C93.5371 58.6585 94.1605 59.2782 94.9295 59.2782Z" stroke="#F5F5F5" stroke-width="0.5"/>
<path d="M94.5811 58.4132V57.375H95.2773V57.8941L94.9292 58.0672L95.2773 58.4132" stroke="#F5F5F5" stroke-width="0.5" stroke-linecap="square"/>
<path fill-rule="evenodd" clip-rule="evenodd" d="M79.2643 38.6887L96.8438 20.5215V17.9263L78.568 0.278198L60.8145 18.6184L63.7733 24.3282L79.2643 38.6887ZM79.2643 28.8266L69.3432 19.6565L78.568 10.1404L88.315 19.3105L79.2643 28.8266Z" fill="#F5F5F5" stroke="#F5F5F5" stroke-linecap="square"/>
<path d="M63.0775 5.86316C64.8002 5.86316 66.4648 6.0392 68.0454 6.36853C71.3743 7.02113 74.3031 8.31753 76.6258 10.0555C80.035 12.6064 82.2173 16.1844 82.2173 20.0811C82.2173 20.4201 82.2003 20.7567 82.168 21.0905C81.8981 29.0105 73.5585 35.5264 63.0775 35.5266C52.4226 35.5266 43.9799 28.7924 43.9799 20.6948C43.9799 20.6928 43.9799 20.6907 43.9799 20.6887C43.9682 20.4871 43.9619 20.2845 43.9619 20.0811C43.9619 16.6408 45.6632 13.4489 48.4078 10.993C48.874 10.5528 49.3786 10.134 49.9184 9.73915C53.1821 7.35181 57.7102 5.86318 62.7293 5.86316C62.7909 5.86316 62.8524 5.8633 62.9139 5.86374C62.9684 5.8634 63.023 5.86316 63.0775 5.86316ZM62.9032 11.6494C59.1072 11.6495 55.8015 12.8048 53.5215 14.5107C51.2448 16.2143 50.1488 18.3121 50.1488 20.3487C50.149 22.3853 51.2448 24.4829 53.5215 26.1865C53.7379 26.3483 53.9636 26.5052 54.198 26.6567C56.4722 27.9451 59.3687 28.7583 62.7293 28.7583C67.5813 28.7583 71.4663 27.0634 73.9068 24.6893C75.0846 23.3252 75.6576 21.8211 75.6576 20.3487C75.6576 18.3121 74.5618 16.2143 72.2851 14.5107C70.0052 12.8048 66.6992 11.6494 62.9032 11.6494Z" fill="#F5F5F5"/>
<path fill-rule="evenodd" clip-rule="evenodd" d="M31.7471 36.9586H35.0541L65.6878 23.29L41.3201 0.105225L38.1871 0.451266L31.7471 36.9586ZM44.2791 11.6976L41.3201 26.5775L54.0261 21.2137L44.2791 11.6976Z" fill="#F5F5F5" stroke="#F5F5F5" stroke-linecap="square"/>
</g>
<defs>
<clipPath id="clip0_231_164">
<rect width="84" height="100" fill="white" transform="translate(22)"/>
</clipPath>
</defs>
</svg>
