<svg width="146" height="20" viewBox="0 0 146 20" fill="none" xmlns="http://www.w3.org/2000/svg">
<g clip-path="url(#clip0_96_113)">
<path d="M36.5199 20H41.0629V0H37.0502V14.1457L26.0729 0H21L36.5199 20Z" fill="#101010"/>
<path d="M104.305 4H96.2796V20H92.2669V4H84.2415V0H104.305V4Z" fill="#101010"/>
<path d="M62.1437 20H42.0801V16H62.1437V20ZM62.1437 12H42.0801V8H62.1437V12ZM62.1437 4H42.0801V0H62.1437V4Z" fill="#101010"/>
<path d="M67.1735 14.1457L78.1509 0H83.2237L74.797 10.859L83.2243 19.9596V20H77.8008L72.3072 14.0676L67.7038 20H63.1608V0H67.1735V14.1457Z" fill="#101010"/>
<path d="M125.066 10C125.066 15.5228 120.574 20 115.034 20C109.494 20 105.002 15.5228 105.002 10C105.002 4.47715 109.494 0 115.034 0C120.574 0 125.066 4.47715 125.066 10ZM108.968 10C108.968 13.3396 111.684 16.0469 115.034 16.0469C118.384 16.0469 121.1 13.3396 121.1 10C121.1 6.66037 118.384 3.95306 115.034 3.95306C111.684 3.95306 108.968 6.66037 108.968 10Z" fill="#101010"/>
<path d="M139.941 0.00195312C143.302 0.0867972 146 2.82932 146 6.2C146 9.57068 143.302 12.3132 139.941 12.398L139.78 12.4H139L146 19.9596V20H140.576L133.539 12.4H129.949V20H125.936V0H139.78L139.941 0.00195312ZM129.949 8.4H139.78C140.999 8.4 141.987 7.41502 141.987 6.2C141.987 4.98498 140.999 4 139.78 4H129.949V8.4Z" fill="#101010"/>
<path d="M20 0L14 8H20V12H12V20H8V16L5 20H0L6 12H0V8H8V0H12V4L15 0H20Z" fill="#FF4B33"/>
</g>
<defs>
<clipPath id="clip0_96_113">
<rect width="146" height="20" fill="white"/>
</clipPath>
</defs>
</svg>
