<svg width="125" height="20" viewBox="0 0 125 20" fill="none" xmlns="http://www.w3.org/2000/svg">
<path d="M15.5199 20H20.0629V0H16.0502V14.1457L5.07286 0H0L15.5199 20Z" fill="#101010"/>
<path d="M83.305 4H75.2796V20H71.2669V4H63.2415V0H83.305V4Z" fill="#101010"/>
<path d="M41.1437 20H21.0801V16H41.1437V20ZM41.1437 12H21.0801V8H41.1437V12ZM41.1437 4H21.0801V0H41.1437V4Z" fill="#101010"/>
<path d="M46.1735 14.1457L57.1509 0H62.2237L53.797 10.859L62.2243 19.9596V20H56.8008L51.3072 14.0676L46.7038 20H42.1608V0H46.1735V14.1457Z" fill="#101010"/>
<path d="M104.066 10C104.066 15.5228 99.5744 20 94.034 20C88.4936 20 84.0023 15.5228 84.0023 10C84.0023 4.47715 88.4936 0 94.034 0C99.5744 0 104.066 4.47715 104.066 10ZM87.9679 10C87.9679 13.3396 90.6838 16.0469 94.034 16.0469C97.3843 16.0469 100.1 13.3396 100.1 10C100.1 6.66037 97.3843 3.95306 94.034 3.95306C90.6838 3.95306 87.9679 6.66037 87.9679 10Z" fill="#101010"/>
<path d="M118.941 0.00195312C122.302 0.0867972 125 2.82932 125 6.2C125 9.57068 122.302 12.3132 118.941 12.398L118.78 12.4H118L125 19.9596V20H119.576L112.539 12.4H108.949V20H104.936V0H118.78L118.941 0.00195312ZM108.949 8.4H118.78C119.999 8.4 120.987 7.41502 120.987 6.2C120.987 4.98498 119.999 4 118.78 4H108.949V8.4Z" fill="#101010"/>
</svg>
