<svg width="128" height="100" viewBox="0 0 128 100" fill="none" xmlns="http://www.w3.org/2000/svg">
<path d="M6.7979 33.8497L6.1878 33.5335C6.02327 33.8007 5.89447 34.0886 5.80475 34.3899L6.46714 34.6073C6.55105 34.344 6.66189 34.0899 6.7979 33.8497Z" fill="#101010"/>
<path d="M21.9302 51.7685C20.7972 47.0972 18.0372 44.907 15.6022 42.9743C13.5782 41.3682 11.8308 39.981 11.2052 37.4014C10.8901 36.1034 11.6455 34.5089 12.3764 32.9673C12.9904 31.6717 13.6255 30.3322 13.7092 29.0166C13.8136 27.3848 13.0529 26.0595 11.4486 25.0781C9.3786 23.8106 6.80334 24.0425 4.5632 25.6978C2.87977 26.939 1.52384 28.8627 0.743351 31.1113C-0.11875 33.6391 -0.233659 36.3647 0.412591 38.9568C1.68203 44.1907 4.90987 46.9393 7.50299 49.148C9.28513 50.6659 10.8239 51.9764 11.2368 53.6776C11.6466 55.3685 10.9686 56.5324 10.1831 57.8774C9.14764 59.652 7.85881 61.8607 10.2484 65.0272C11.5815 66.7928 13.5371 67.4017 15.5981 66.7388C15.8776 66.6485 16.1507 66.5389 16.4154 66.4109C18.4028 65.4554 20.1614 63.4538 21.2397 60.919C22.458 58.0274 22.7005 54.8125 21.9302 51.7685ZM19.4495 60.1443C18.5682 62.216 17.1209 63.8952 15.5776 64.6372C14.5158 65.1473 13 65.4229 11.8016 63.8375C10.2033 61.7201 10.8646 60.5874 11.8641 58.8746C12.6951 57.4505 13.729 55.6779 13.1311 53.2117C12.5677 50.889 10.7191 49.3147 8.76197 47.6478C6.26058 45.5177 3.42581 43.1021 2.30715 38.4906C1.07912 33.4263 3.21271 29.131 5.71476 27.2831C6.20216 26.9153 6.74541 26.6294 7.32345 26.4363C7.83399 26.2565 8.37752 26.1922 8.91552 26.2477C9.45351 26.3035 9.97277 26.4776 10.4365 26.7581C12.3644 27.9377 12.0168 29.1655 10.6167 32.1204C9.77952 33.8868 8.82995 35.8891 9.30931 37.8681C10.0948 41.1062 12.2807 42.8412 14.3945 44.5187C16.6891 46.3396 19.0615 48.2224 20.0346 52.2353C20.7044 54.865 20.4988 57.6438 19.4495 60.1443Z" fill="#101010"/>
<path d="M8.79465 31.778C9.21758 31.6421 9.59098 31.3827 9.86766 31.0329C10.1443 30.6829 10.3118 30.2582 10.349 29.8124C10.3862 29.3666 10.2913 28.9198 10.0764 28.5282C9.86154 28.1369 9.53629 27.8183 9.14182 27.6132C8.74735 27.4081 8.30135 27.3253 7.86025 27.3756C7.41917 27.4258 7.00278 27.607 6.66376 27.8958C6.32474 28.1845 6.07833 28.5682 5.95568 28.9981C5.83303 29.4281 5.83965 29.8851 5.9747 30.3113C6.15577 30.8827 6.55453 31.3581 7.08335 31.6331C7.61218 31.9082 8.22772 31.9603 8.79465 31.778Z" fill="#101010"/>
<path d="M14.0171 59.0623C13.5942 59.1983 13.2208 59.4576 12.9442 59.8076C12.6676 60.1575 12.5001 60.5822 12.463 61.0279C12.4259 61.4739 12.5209 61.9208 12.7358 62.3121C12.9507 62.7037 13.276 63.0221 13.6705 63.2272C14.0651 63.4323 14.5111 63.5149 14.9522 63.4646C15.3932 63.4141 15.8096 63.2331 16.1486 62.9441C16.4875 62.6554 16.7339 62.2717 16.8565 61.8415C16.9791 61.4116 16.9724 60.9546 16.8372 60.5286C16.6561 59.9572 16.2573 59.482 15.7284 59.2068C15.1995 58.9319 14.584 58.8799 14.0171 59.0623Z" fill="#101010"/>
<path d="M16.8821 56.0203L16.1977 55.8885C16.1567 56.1336 16.0861 56.373 15.9877 56.6009L16.6091 56.9178C16.7387 56.6319 16.8305 56.3301 16.8821 56.0203Z" fill="#101010"/>
<path d="M16.5812 52.5544L15.919 52.772L15.9387 52.8337C16.0947 53.319 16.2001 53.8195 16.2531 54.327L16.946 54.2569C16.8884 53.7007 16.7731 53.1521 16.6021 52.6201L16.5812 52.5544Z" fill="#101010"/>
<path d="M13.977 48.1658C13.6249 47.7547 13.2362 47.3383 12.8243 46.9286L12.3356 47.4286C12.7348 47.8254 13.11 48.2277 13.4503 48.6245L13.977 48.1658Z" fill="#101010"/>
<path d="M7.79954 42.496C8.11004 42.9398 8.45561 43.392 8.82734 43.8406L9.36182 43.3907C9.0023 42.9568 8.66849 42.5198 8.36889 42.0915L7.79954 42.496Z" fill="#101010"/>
<path d="M15.9086 50.9672C15.6435 50.4617 15.3464 49.9739 15.0192 49.5069L14.4494 49.9105C14.7594 50.353 15.0408 50.815 15.292 51.2939L15.9086 50.9672Z" fill="#101010"/>
<path d="M6.2499 36.1372L5.55417 36.0986C5.52565 36.6836 5.56794 37.2701 5.68011 37.8448L6.36429 37.713C6.26243 37.1946 6.22401 36.6653 6.2499 36.1372Z" fill="#101010"/>
<path d="M6.16361 39.506C6.37231 40.0385 6.61676 40.5561 6.89529 41.055L7.50321 40.7125C7.24015 40.2417 7.00929 39.7531 6.81228 39.2504L6.16361 39.506Z" fill="#101010"/>
<path d="M10.4506 44.618L9.94621 45.1022C10.3179 45.4957 10.7178 45.896 11.1335 46.292L11.6129 45.7816C11.2039 45.3943 10.8134 45.0027 10.4506 44.618Z" fill="#101010"/>
<path d="M55.6936 33.2772C55.4435 31.2413 54.7981 29.2748 53.794 27.4904C52.79 25.7057 51.4469 24.1381 49.8417 22.8767C48.2363 21.6151 46.4003 20.6847 44.4382 20.1383C42.4761 19.5922 40.4266 19.4407 38.4065 19.6926C36.3862 19.9447 34.4352 20.5951 32.6644 21.6072C30.8939 22.6191 29.3383 23.9725 28.0865 25.5905C26.835 27.2082 25.9118 29.0588 25.3697 31.036C24.8275 33.0135 24.6772 35.0792 24.9273 37.1151L28.0868 62.8194C28.1157 63.0607 28.238 63.281 28.4269 63.4323C28.6158 63.5836 28.8561 63.6539 29.096 63.6277C29.3359 63.6018 29.5562 63.4817 29.7087 63.2935C29.8615 63.1051 29.9345 62.8638 29.912 62.6218H29.914L29.9118 62.6029C29.9118 62.6029 29.9118 62.6007 29.9118 62.5996V62.5959L29.5948 60.022L33.061 59.5898L33.373 62.1283C33.402 62.3721 33.5258 62.5945 33.7173 62.7463C33.9088 62.8982 34.1524 62.9672 34.3945 62.938C34.6364 62.909 34.8571 62.7841 35.0076 62.591C35.1584 62.398 35.2268 62.1525 35.1979 61.9087L33.645 49.2923C36.1529 50.4996 38.9369 51.0049 41.705 50.7548C44.4733 50.5047 47.1237 49.5086 49.3785 47.8709C51.6332 46.2333 53.4092 44.0143 54.5203 41.4468C55.6315 38.8793 56.0366 36.0579 55.6934 33.2783L55.6936 33.2772ZM53.6522 38.1792L50.2696 37.2611C50.4527 36.3702 50.5163 35.4587 50.4588 34.5506L53.9343 34.1169C54.0416 35.4775 53.9466 36.8469 53.6522 38.1792ZM42.1639 45.2722C43.0953 45.0991 43.9981 44.795 44.8454 44.3685L46.5932 47.4286C45.3379 48.0845 43.9887 48.5387 42.5942 48.7749L42.1639 45.2722ZM41.3359 43.5345C39.1426 43.8057 36.9321 43.1893 35.1891 41.8203C33.4462 40.4514 32.3132 38.4416 32.0387 36.2318V36.2286C31.836 34.5794 32.1232 32.9065 32.8638 31.4218C33.6044 29.9371 34.7654 28.707 36.1997 27.8872C37.6341 27.0675 39.2774 26.6948 40.9219 26.8162C42.5663 26.9377 44.1382 27.5479 45.4385 28.5697C46.7389 29.5915 47.7094 30.9791 48.2273 32.5567C48.7453 34.1345 48.7875 35.8315 48.3485 37.4333C47.9092 39.0352 47.0087 40.4698 45.7606 41.5557C44.5125 42.6416 42.9722 43.3303 41.3359 43.5345ZM32.3537 53.8245L28.8853 54.2567L28.4733 50.9085L31.9413 50.4759L32.3537 53.8245ZM28.3227 49.6867L27.9443 46.6124L31.4133 46.1798L31.7911 49.2541L28.3227 49.6867ZM26.9696 32.2132L30.3522 33.1312C30.1691 34.0221 30.1055 34.9336 30.1633 35.8416L26.6875 36.2753C26.5798 34.9145 26.675 33.5455 26.9696 32.2132ZM30.6688 31.9418L27.2899 31.0248C27.7198 29.6681 28.3552 28.3868 29.1736 27.2258L31.9352 29.3958C31.3978 30.1811 30.9716 31.0382 30.6688 31.9418ZM30.2933 37.0663L30.7047 40.4145L27.2346 40.8473L26.8223 37.4991L30.2933 37.0663ZM30.8551 41.6368L31.2632 44.9575L27.7948 45.3901L27.3849 42.0691L30.8551 41.6368ZM32.7531 42.045C33.0166 42.339 33.2963 42.6177 33.5916 42.8795L32.9571 43.6996L32.7531 42.045ZM38.4577 25.1203C37.5263 25.2933 36.6237 25.5977 35.7764 26.0242L34.0287 22.9643C35.2839 22.3084 36.6331 21.8543 38.0276 21.618L38.4577 25.1203ZM43.5403 25.4787L44.45 22.0736C45.7961 22.5069 47.0675 23.147 48.2195 23.9718L46.0661 26.755C45.2869 26.2135 44.4369 25.7841 43.5403 25.4787ZM50.3086 33.3292C50.1369 32.3907 49.8352 31.4809 49.412 30.6271L52.4481 28.8655C53.099 30.1306 53.5498 31.4903 53.7842 32.8957L50.3086 33.3292ZM49.953 38.4515L53.3317 39.3681C52.902 40.7248 52.2666 42.0061 51.4482 43.1671L48.6867 40.9971C49.224 40.2116 49.6502 39.3554 49.953 38.4515ZM51.8371 27.7992L48.801 29.5605C48.3034 28.802 47.7079 28.1136 47.0305 27.513L49.1837 24.7296C50.2136 25.6148 51.1076 26.65 51.8371 27.7992ZM43.271 21.7513L42.36 25.1603C41.476 24.976 40.5715 24.9119 39.6705 24.9697L39.2402 21.4669C40.5902 21.3584 41.949 21.4548 43.271 21.7513ZM32.9704 23.5805L34.7183 26.6403C33.9657 27.1421 33.2826 27.7421 32.6864 28.4248L29.9249 26.2547C30.8034 25.2163 31.8297 24.3146 32.9704 23.5792V23.5805ZM29.4447 58.7995L29.0368 55.4788L32.5039 55.0464L32.912 58.3673L29.4447 58.7995ZM33.1706 45.4279L34.5557 43.6373C35.3354 44.1788 36.186 44.6086 37.0833 44.9138L36.1731 48.3202C35.195 48.005 34.255 47.5801 33.3713 47.0531L33.1706 45.4279ZM37.3519 48.6414L38.2625 45.2326C39.1465 45.4171 40.0512 45.4812 40.9522 45.4232L41.3825 48.9269C40.032 49.0352 38.6741 48.9388 37.3519 48.6414ZM47.6523 46.8124L45.9044 43.7526C46.657 43.2508 47.3403 42.6509 47.9362 41.9681L50.6978 44.1382C49.8188 45.1762 48.7932 46.0774 47.6523 46.8124Z" fill="#101010"/>
<path d="M71.5602 42.4644C71.2286 41.859 70.7506 41.3478 70.1705 40.9782C69.5905 40.6086 68.9272 40.3928 68.2424 40.3504C68.2757 40.1248 68.3202 39.9011 68.3758 39.6799C68.7394 38.2379 68.9671 37.601 69.251 36.5777C69.5807 35.3897 69.6038 35.3313 69.9566 33.9487C70.4749 31.9159 70.5013 29.478 69.6175 27.5383C69.3171 26.8705 68.8832 26.2721 68.3429 25.7811C67.8025 25.2898 67.1675 24.9163 66.4775 24.6835C64.8668 24.1936 62.5369 24.4382 61.3468 25.7855C60.6079 26.6219 60.2318 27.3578 60.1575 28.5251C60.0946 29.5149 60.4556 30.7255 61.149 31.4545C61.4889 31.7951 61.871 32.0896 62.2861 32.331C62.2351 32.7627 62.1582 33.1907 62.0558 33.613C61.2278 37.0501 60.6101 37.7701 60.2525 39.9153C59.8808 42.1462 60.6097 44.7295 62.2465 46.3583C64.2994 48.4005 67.0922 49.0657 69.7727 47.8941C71.7019 47.0489 72.575 44.2978 71.5602 42.4644ZM66.4346 26.3241C67.0806 26.7938 67.7663 27.8727 68.0842 28.5489C68.6963 29.7931 68.9593 31.182 68.8451 32.5659C68.7564 33.8943 68.4093 35.5054 68.2481 35.4826C68.0868 35.4598 68.4777 32.5861 67.1418 30.2782C65.9317 28.1865 64.153 27.7214 64.2123 26.4607C64.2493 25.6713 65.3577 25.5402 66.4346 26.3241Z" fill="#101010"/>
<path d="M69.7916 17.8725C69.6942 15.6816 68.0287 13.8287 65.7791 13.8287C63.6804 13.8287 61.6697 15.6887 61.7667 17.8725C61.8641 20.0635 63.5296 21.9164 65.7791 21.9164C67.8779 21.9164 69.8886 20.0564 69.7916 17.8725ZM68.089 19.6269C67.8262 19.9923 68.1544 17.5803 66.4838 16.8532C65.4057 16.3839 64.5132 16.2875 64.4574 15.6588C64.4391 15.556 64.4537 15.4497 64.4992 15.356C64.5448 15.262 64.6189 15.1851 64.7108 15.1366C64.9023 14.9932 65.188 14.9458 65.6521 14.9829C66.2402 15.0138 66.8072 15.213 67.2869 15.5571C67.7667 15.9012 68.1396 16.3758 68.3614 16.9254C68.5501 17.3613 68.6241 17.8387 68.5764 18.312C68.5287 18.785 68.3607 19.2382 68.089 19.6269Z" fill="#101010"/>
<path d="M82.5304 42.2264C81.9423 42.2268 81.3686 42.0417 80.8901 41.6969C80.4116 41.3522 80.0523 40.8651 79.8623 40.304C79.6726 39.743 79.6617 39.1362 79.8316 38.5686C80.0013 38.0009 80.3432 37.5013 80.8091 37.1394L78.2598 35.2948V48.4242C78.2598 49.5657 78.7097 50.6606 79.5107 51.4676C80.3114 52.2749 81.3978 52.7283 82.5304 52.7283C83.663 52.7283 84.7494 52.2749 85.5502 51.4676C86.3511 50.6606 86.8011 49.5657 86.8011 48.4242V41.4762L85.1926 40.3124C85.0015 40.8708 84.6424 41.3555 84.1653 41.6985C83.6881 42.0415 83.1165 42.2262 82.5304 42.2264ZM82.5304 50.8345C81.9728 50.8345 81.4279 50.6679 80.9644 50.3558C80.501 50.0435 80.1397 49.6 79.9264 49.0808C79.7131 48.5619 79.6571 47.9908 79.766 47.4396C79.8748 46.8886 80.1432 46.3824 80.5374 45.9852C80.9315 45.588 81.4338 45.3174 81.9805 45.2078C82.5274 45.098 83.0941 45.1545 83.609 45.3694C84.1241 45.5844 84.5642 45.9485 84.8741 46.4156C85.1837 46.8827 85.3491 47.4321 85.3491 47.9938C85.3491 48.3669 85.2761 48.7363 85.1344 49.0808C84.9928 49.4254 84.7852 49.7385 84.5235 50.0023C84.2616 50.266 83.9508 50.4753 83.609 50.618C83.2671 50.7607 82.9006 50.8345 82.5304 50.8345Z" fill="#101010"/>
<path d="M80.8629 14.3386C80.8627 13.8856 80.996 13.4429 81.2459 13.0663C81.4959 12.6899 81.8513 12.3967 82.2668 12.2241C82.6823 12.0515 83.1394 12.0071 83.58 12.097C84.0206 12.1866 84.4248 12.4061 84.7414 12.7279C84.613 12.416 84.4178 12.1365 84.1694 11.9096C83.9212 11.683 83.6262 11.5144 83.3057 11.4162C82.9852 11.3181 82.6468 11.2926 82.3154 11.3418C81.9839 11.391 81.6674 11.5137 81.3885 11.7008C81.1095 11.8881 80.8753 12.1354 80.7025 12.4246C80.5297 12.714 80.4228 13.0381 80.3892 13.3743C80.3556 13.7103 80.3964 14.0496 80.5084 14.3678C80.6204 14.686 80.801 14.9754 81.0372 15.2148C80.9222 14.9372 80.8629 14.6394 80.8629 14.3386Z" fill="#101010"/>
<path d="M80.8629 22.9114C80.8627 22.4584 80.996 22.0154 81.2459 21.6391C81.4959 21.2624 81.8513 20.9693 82.2668 20.7967C82.6823 20.6241 83.1394 20.5799 83.58 20.6695C84.0206 20.7594 84.4248 20.9789 84.7414 21.3007C84.613 20.9886 84.4178 20.7093 84.1694 20.4824C83.9212 20.2556 83.6262 20.0872 83.3057 19.9888C82.9852 19.8906 82.6468 19.8654 82.3154 19.9146C81.9839 19.9638 81.6674 20.0863 81.3885 20.2736C81.1095 20.4609 80.8753 20.708 80.7025 20.9974C80.5297 21.2866 80.4228 21.6109 80.3892 21.9469C80.3556 22.2829 80.3964 22.6222 80.5084 22.9406C80.6204 23.2588 80.801 23.548 81.0372 23.7876C80.9222 23.51 80.8629 23.2122 80.8629 22.9114Z" fill="#101010"/>
<path d="M80.8629 48.8751C80.8627 48.4221 80.9958 47.9791 81.2459 47.6027C81.4959 47.2261 81.851 46.933 82.2668 46.7604C82.6823 46.5878 83.1394 46.5434 83.58 46.6332C84.0206 46.7228 84.4248 46.9424 84.7414 47.2641C84.613 46.9523 84.4178 46.6727 84.1694 46.4459C83.9212 46.2193 83.6262 46.0506 83.3057 45.9525C82.9852 45.8543 82.6468 45.8288 82.3154 45.878C81.9839 45.9272 81.6674 46.05 81.3885 46.2371C81.1095 46.4244 80.8753 46.6714 80.7025 46.9609C80.5297 47.2503 80.4228 47.5744 80.3892 47.9106C80.3556 48.2466 80.3964 48.5859 80.5084 48.9041C80.6204 49.2223 80.801 49.5117 81.0372 49.751C80.9222 49.4737 80.8629 49.1759 80.8629 48.8751Z" fill="#101010"/>
<path d="M99.0871 37.9107L91.9684 32.5031L90.3893 33.3407C90.9192 33.51 91.3877 33.8332 91.7357 34.2702C92.0836 34.707 92.2959 35.238 92.3451 35.7959C92.3944 36.3539 92.2789 36.9144 92.0131 37.4062C91.747 37.8984 91.3426 38.3 90.8508 38.5609C90.3588 38.8218 89.8012 38.9302 89.2485 38.8727C88.6954 38.815 88.1716 38.5938 87.7432 38.2368C87.3147 37.8799 87.0007 37.4032 86.8403 36.8667C86.6799 36.3302 86.6808 35.758 86.8425 35.2219L85.2142 36.0854C84.6335 36.3709 84.0282 36.6025 83.4057 36.7773L93.9466 44.7847C94.3937 45.1338 94.9051 45.3901 95.4514 45.5383C95.9974 45.6868 96.5674 45.7243 97.1281 45.6488C97.6887 45.5732 98.2288 45.3864 98.7171 45.0987C99.2057 44.811 99.6323 44.4285 99.9728 43.9733C100.313 43.5183 100.561 42.9994 100.701 42.4471C100.84 41.8946 100.87 41.3199 100.788 40.7557C100.705 40.1918 100.513 39.6501 100.221 39.1617C99.9288 38.6733 99.5434 38.2477 99.0871 37.9107ZM98.6077 42.9366C98.2722 43.3852 97.8122 43.7236 97.286 43.9087C96.7596 44.0938 96.1907 44.1175 95.651 43.9768C95.1115 43.836 94.6254 43.5374 94.2541 43.1182C93.883 42.6989 93.6435 42.1783 93.566 41.622C93.4884 41.0656 93.5764 40.4986 93.8185 39.9926C94.0608 39.4867 94.4465 39.0644 94.9269 38.7794C95.4072 38.4943 95.9606 38.3591 96.5171 38.3909C97.0736 38.423 97.6083 38.6204 98.0534 38.9586C98.3491 39.183 98.5982 39.4639 98.7862 39.7851C98.974 40.1066 99.0974 40.4621 99.149 40.8315C99.2006 41.2009 99.1797 41.577 99.0871 41.938C98.9945 42.2993 98.8322 42.6386 98.6095 42.9366H98.6077Z" fill="#101010"/>
<path d="M83.8582 34.8706C83.88 34.8596 83.9018 34.8486 83.9249 34.8383L99.6752 26.5595C100.175 26.2998 100.62 25.9429 100.982 25.5096C101.345 25.0764 101.619 24.575 101.789 24.0346C101.96 23.4942 102.022 22.9252 101.973 22.3604C101.924 21.7956 101.765 21.246 101.505 20.7433C101.245 20.2407 100.889 19.7947 100.457 19.431C100.025 19.0676 99.5268 18.7935 98.9897 18.6247C98.4526 18.456 97.8878 18.3958 97.3274 18.4477C96.7672 18.4997 96.2227 18.6627 95.7253 18.9273L86.8011 23.6183V13.3041C86.8011 12.1626 86.3511 11.0677 85.5502 10.2607C84.7494 9.45346 83.663 9 82.5304 9C81.3978 9 80.3114 9.45346 79.5107 10.2607C78.7097 11.0677 78.2598 12.1626 78.2598 13.3041V28.8567C77.8965 29.4848 77.6971 30.1954 77.6802 30.922C77.6634 31.6489 77.8294 32.3681 78.1632 33.0126C78.1937 33.0712 78.2271 33.1272 78.2598 33.1839L78.2953 33.2471C78.8217 34.1288 79.6449 34.7906 80.6149 35.1121C81.585 35.4334 82.6374 35.393 83.5802 34.9982L83.8582 34.8706ZM82.5304 33.5609C81.9728 33.5609 81.4279 33.3942 80.9644 33.0822C80.501 32.7699 80.1397 32.3263 79.9264 31.8072C79.7131 31.2881 79.6571 30.7169 79.766 30.166C79.8748 29.6148 80.1432 29.1086 80.5374 28.7114C80.9315 28.3141 81.4338 28.0436 81.9807 27.934C82.5274 27.8244 83.0941 27.8808 83.6092 28.0958C84.1243 28.3108 84.5644 28.6749 84.8741 29.1422C85.1839 29.6093 85.3491 30.1585 85.3491 30.7204C85.3491 31.0935 85.2761 31.4629 85.1344 31.8074C84.9928 32.152 84.7852 32.4651 84.5235 32.7291C84.2618 32.9928 83.9511 33.2021 83.609 33.3446C83.2671 33.4873 82.9006 33.5609 82.5304 33.5609ZM82.5304 24.9528C81.9728 24.9528 81.4279 24.7861 80.9644 24.474C80.501 24.1618 80.1397 23.7182 79.9264 23.1991C79.7131 22.6799 79.6571 22.1088 79.766 21.5578C79.8748 21.0068 80.1432 20.5007 80.5374 20.1034C80.9315 19.7062 81.4338 19.4356 81.9805 19.3258C82.5274 19.2163 83.0941 19.2725 83.609 19.4877C84.1241 19.7027 84.5642 20.0667 84.8741 20.5338C85.1837 21.0009 85.3491 21.5501 85.3491 22.1121C85.3491 22.4852 85.2763 22.8545 85.1347 23.1993C84.993 23.544 84.7854 23.8572 84.5237 24.1209C84.262 24.3849 83.9511 24.5942 83.6092 24.7369C83.2671 24.8796 82.9006 24.9528 82.5304 24.9528ZM82.5304 16.3446C81.9728 16.3446 81.4279 16.1779 80.9644 15.8659C80.501 15.5536 80.1397 15.11 79.9264 14.5909C79.7131 14.0718 79.6571 13.5006 79.766 12.9497C79.8748 12.3987 80.1432 11.8925 80.5374 11.4953C80.9315 11.098 81.4338 10.8275 81.9805 10.7177C82.5274 10.6081 83.0941 10.6643 83.609 10.8795C84.1241 11.0945 84.5642 11.4586 84.8741 11.9257C85.1837 12.3928 85.3491 12.942 85.3491 13.5039C85.3493 13.877 85.2763 14.2464 85.1347 14.5911C84.9932 14.9359 84.7856 15.2493 84.5237 15.513C84.262 15.7769 83.9513 15.9862 83.6092 16.129C83.2673 16.2717 82.9006 16.3446 82.5304 16.3446ZM91.2544 29.3343C90.7602 29.5941 90.2006 29.7004 89.6463 29.6396C89.0922 29.579 88.5684 29.3539 88.1411 28.9931C87.7138 28.6323 87.4022 28.152 87.2458 27.6127C87.0894 27.0736 87.0952 26.4998 87.2624 25.9638C87.4295 25.428 87.7507 24.9541 88.1851 24.6021C88.6196 24.25 89.1478 24.0357 89.7032 23.9863C90.2584 23.9369 90.8157 24.0546 91.3047 24.3243C91.7936 24.5942 92.1922 25.0041 92.4499 25.5022C92.6212 25.8329 92.726 26.1943 92.7587 26.5661C92.7914 26.9377 92.7508 27.3123 92.6399 27.6681C92.5288 28.024 92.3495 28.3545 92.1115 28.6404C91.8738 28.9263 91.5825 29.1617 91.2544 29.3343ZM98.8274 25.3544C98.333 25.6142 97.7734 25.7205 97.2191 25.6596C96.665 25.599 96.1412 25.3739 95.7137 25.0131C95.2864 24.6523 94.9749 24.1719 94.8184 23.6325C94.6622 23.0934 94.6678 22.5194 94.8352 21.9834C95.0023 21.4476 95.3235 20.9735 95.758 20.6214C96.1927 20.2697 96.7208 20.0553 97.2762 20.0059C97.8316 19.9565 98.389 20.0742 98.8779 20.3441C99.3669 20.614 99.7654 21.024 100.023 21.5222C100.194 21.8529 100.299 22.2144 100.332 22.5859C100.364 22.9575 100.324 23.3319 100.213 23.6879C100.102 24.0436 99.9223 24.3741 99.6846 24.66C99.4469 24.9459 99.1555 25.1818 98.8274 25.3544Z" fill="#101010"/>
<path d="M80.8629 31.5048C80.8627 31.0518 80.9958 30.6089 81.2459 30.2325C81.4959 29.8559 81.851 29.5627 82.2668 29.3901C82.6823 29.2175 83.1394 29.1732 83.58 29.263C84.0206 29.3526 84.4248 29.5722 84.7414 29.8939C84.613 29.5821 84.4178 29.3025 84.1694 29.0757C83.9212 28.849 83.6262 28.6804 83.3057 28.5822C82.9852 28.4841 82.6468 28.4586 82.3154 28.5078C81.9839 28.557 81.6674 28.6797 81.3885 28.8668C81.1095 29.0541 80.8753 29.3012 80.7025 29.5906C80.5297 29.88 80.4228 30.2042 80.3892 30.5401C80.3556 30.8761 80.3964 31.2156 80.5084 31.5338C80.6204 31.852 80.801 32.1412 81.0372 32.3808C80.9222 32.1032 80.8629 31.8057 80.8629 31.5048Z" fill="#101010"/>
<path d="M88.3161 27.6775C88.3159 27.2245 88.4492 26.7815 88.6991 26.4052C88.9491 26.0286 89.3044 25.7354 89.72 25.5628C90.1357 25.3902 90.5926 25.346 91.0332 25.4356C91.4738 25.5255 91.878 25.7451 92.1946 26.0668C92.0662 25.7547 91.871 25.4754 91.6226 25.2485C91.3744 25.0217 91.0794 24.8533 90.7589 24.7551C90.4383 24.6567 90.1 24.6315 89.7686 24.6807C89.4371 24.7299 89.1205 24.8526 88.8416 25.0397C88.5627 25.227 88.3285 25.4741 88.1557 25.7635C87.9829 26.0527 87.8759 26.3771 87.8424 26.713C87.8088 27.049 87.8496 27.3883 87.9616 27.7067C88.0736 28.0249 88.2542 28.3141 88.4904 28.5537C88.3754 28.2761 88.3161 27.9783 88.3161 27.6775Z" fill="#101010"/>
<path d="M95.8351 23.7127C95.8349 23.2597 95.968 22.8167 96.2181 22.4401C96.4681 22.0637 96.8232 21.7706 97.239 21.5978C97.6545 21.4252 98.1116 21.381 98.5522 21.4706C98.9928 21.5604 99.397 21.78 99.7136 22.1017C99.5852 21.7897 99.39 21.5104 99.1416 21.2835C98.8934 21.0567 98.5984 20.8883 98.2779 20.7899C97.9574 20.6917 97.619 20.6665 97.2876 20.7157C96.9561 20.7648 96.6395 20.8874 96.3606 21.0747C96.0817 21.262 95.8475 21.5091 95.6747 21.7985C95.5019 22.0877 95.3949 22.412 95.3614 22.748C95.3278 23.084 95.3686 23.4233 95.4806 23.7415C95.5926 24.0599 95.7732 24.3491 96.0094 24.5887C95.8944 24.3111 95.8351 24.0133 95.8351 23.7127Z" fill="#101010"/>
<path d="M94.7415 42.083C94.7415 41.6302 94.8748 41.1877 95.1248 40.8113C95.3747 40.4351 95.7298 40.1422 96.1451 39.9696C96.5607 39.797 97.0174 39.7526 97.4577 39.8422C97.8983 39.9316 98.3023 40.151 98.6189 40.4722C98.4905 40.1604 98.2953 39.8809 98.0469 39.654C97.7987 39.4272 97.5037 39.2588 97.1832 39.1606C96.8627 39.0624 96.5243 39.037 96.1929 39.0862C95.8615 39.1353 95.5449 39.2581 95.266 39.4452C94.9871 39.6325 94.7528 39.8796 94.58 40.169C94.4072 40.4582 94.3003 40.7825 94.2667 41.1185C94.2331 41.4545 94.2739 41.7938 94.3859 42.1122C94.4979 42.4304 94.6785 42.7196 94.9147 42.9592C94.8003 42.6814 94.7413 42.3836 94.7415 42.083Z" fill="#101010"/>
<path d="M87.8302 36.8627C87.83 36.4097 87.9633 35.9668 88.2132 35.5904C88.4632 35.2138 88.8185 34.9209 89.2341 34.7483C89.6496 34.5757 90.1067 34.5313 90.5473 34.6211C90.9879 34.7107 91.3921 34.9303 91.7087 35.252C91.5803 34.9402 91.3851 34.6606 91.1367 34.4338C90.8885 34.207 90.5935 34.0385 90.273 33.9404C89.9525 33.8422 89.6141 33.8167 89.2827 33.8659C88.9512 33.9151 88.6346 34.0379 88.3557 34.225C88.0768 34.4123 87.8426 34.6593 87.6698 34.9488C87.497 35.238 87.39 35.5623 87.3565 35.8983C87.3229 36.2343 87.3637 36.5735 87.4757 36.892C87.5877 37.2102 87.7683 37.4994 88.0045 37.7389C87.8895 37.4614 87.8302 37.1636 87.8302 36.8627Z" fill="#101010"/>
<path d="M82.075 38.0554L81.3072 37.4998C81.0433 37.6937 80.8243 37.9429 80.6648 38.2302C80.5056 38.5174 80.4097 38.836 80.384 39.1641C80.3583 39.4922 80.4034 39.822 80.5158 40.1308C80.6284 40.4397 80.806 40.7206 81.0363 40.9538C80.8191 40.4272 80.8052 39.8376 80.9973 39.3014C81.1895 38.7649 81.5741 38.3206 82.075 38.0554Z" fill="#101010"/>
<path d="M123.73 29.7801V32.4627H123.362V29.7801H122.415V29.4259H124.678V29.7801H123.73Z" fill="#101010"/>
<path d="M128 32.4627H127.631V29.9202L126.749 32.4627H126.354L125.473 29.9202V32.4627H125.104V29.4259H125.668L126.554 31.9857L127.44 29.4259H128V32.4627Z" fill="#101010"/>
<path d="M127.876 41.2722L127.74 40.9536C127.737 40.9488 127.734 40.9448 127.732 40.9398C127.06 39.3971 126.094 38.0029 124.887 36.8368C123.681 35.6708 122.259 34.7555 120.701 34.1433C119.144 33.5313 117.482 33.2344 115.811 33.2693C114.14 33.3044 112.492 33.6709 110.962 34.3479L110.949 34.3534C107.891 35.7081 105.484 38.2205 104.247 41.3482C103.011 44.4761 103.044 47.9684 104.34 51.0715C105.636 54.1746 108.091 56.6398 111.175 57.9347C114.258 59.2299 117.724 59.251 120.823 57.9936L120.625 58.4986C120.589 58.5935 120.592 58.6987 120.632 58.7916C120.673 58.8845 120.748 58.9576 120.842 58.9949C120.936 59.0323 121.04 59.0309 121.133 58.9912C121.226 58.9514 121.299 58.8766 121.337 58.7828L122.361 56.1738C122.38 56.1263 122.389 56.0758 122.388 56.0249C122.387 55.9739 122.376 55.9237 122.356 55.8771C122.336 55.8306 122.306 55.7884 122.27 55.753C122.234 55.7179 122.191 55.6902 122.144 55.6718L119.565 54.6632C119.517 54.6447 119.467 54.6357 119.416 54.637C119.366 54.6384 119.315 54.65 119.269 54.6709H119.266C119.197 54.702 119.139 54.753 119.099 54.8176C119.059 54.8819 119.038 54.957 119.04 55.0332C119.042 55.1094 119.066 55.1832 119.11 55.2455C119.153 55.3079 119.214 55.3558 119.285 55.3835L119.866 55.611C118.824 56.0346 117.719 56.2809 116.598 56.3402L116.559 54.9888L116.142 55.0005L116.18 56.3538C114.956 56.3653 113.739 56.1531 112.59 55.728L113.078 54.4669L112.689 54.3131L112.203 55.571C111.119 55.1223 110.121 54.4882 109.252 53.6963L110.176 52.7099L109.873 52.4211L108.945 53.4119C108.072 52.5447 107.362 51.5256 106.85 50.4035L108.082 49.8589L107.915 49.4741L106.678 50.0207C106.227 48.9298 105.967 47.7683 105.909 46.588L107.263 46.5489L107.251 46.1286L105.897 46.1679C105.889 44.9331 106.103 43.7069 106.529 42.549L107.783 43.0424L107.935 42.6511L106.688 42.1605C107.136 41.0702 107.767 40.0662 108.555 39.1929L109.526 40.1178L109.812 39.8121L108.84 38.8859C109.7 38.0104 110.711 37.2989 111.822 36.7852L112.354 38.0077L112.736 37.8386L112.203 36.6135C113.283 36.1622 114.432 35.9022 115.6 35.8449L115.638 37.1805L116.055 37.1684L116.018 35.8333C117.239 35.8269 118.451 36.0428 119.596 36.4701L119.119 37.7029L119.507 37.8555L119.982 36.6287C121.06 37.0782 122.053 37.7119 122.918 38.5016L122.02 39.4592L122.324 39.7476L123.223 38.7875C123.829 39.3921 124.356 40.0713 124.792 40.8091L117.588 43.9072C117.117 43.6092 116.563 43.471 116.009 43.5132C115.454 43.5554 114.928 43.7756 114.506 44.1415C114.085 44.5073 113.791 44.9999 113.668 45.5464C113.545 46.0928 113.598 46.6648 113.821 47.1783C114.044 47.6919 114.425 48.1197 114.907 48.3994C115.389 48.679 115.947 48.7956 116.5 48.7319C117.052 48.6682 117.57 48.428 117.977 48.0459C118.384 47.664 118.659 47.1607 118.761 46.6097L127.201 42.98C127.515 42.8434 127.762 42.5867 127.889 42.2666C128.015 41.9464 128.01 41.5889 127.876 41.2722Z" fill="#101010"/>
<path d="M10.3325 77.7975C10.2734 77.1353 10.0105 76.6206 9.54384 76.2533C9.08304 75.8801 8.42434 75.6934 7.56773 75.6934C7.00059 75.6934 6.52798 75.7687 6.14988 75.9192C5.77179 76.0697 5.48822 76.2774 5.29918 76.5423C5.11013 76.8012 5.01266 77.0992 5.00675 77.4363C4.99493 77.7132 5.0481 77.9571 5.16626 78.1678C5.29032 78.3785 5.46755 78.5651 5.69795 78.7277C5.93425 78.8842 6.21782 79.0227 6.54865 79.1431C6.87948 79.2635 7.25166 79.3688 7.6652 79.4591L9.22483 79.8203C10.1228 80.019 10.9144 80.2839 11.5997 80.615C12.2909 80.9461 12.8699 81.3405 13.3366 81.798C13.8092 82.2555 14.1666 82.7823 14.4088 83.3783C14.651 83.9743 14.7751 84.6426 14.781 85.3831C14.7751 86.551 14.4856 87.5534 13.9126 88.3902C13.3395 89.227 12.5154 89.8682 11.4402 90.3137C10.3709 90.7592 9.08009 90.9819 7.56773 90.9819C6.04945 90.9819 4.72614 90.7502 3.59777 90.2866C2.46941 89.823 1.59212 89.1187 0.965904 88.1735C0.339691 87.2283 0.017723 86.0333 0 84.5884H4.20035C4.2358 85.1844 4.39235 85.6811 4.67001 86.0784C4.94767 86.4758 5.32872 86.7768 5.81315 86.9815C6.30348 87.1862 6.87062 87.2885 7.51456 87.2885C8.10532 87.2885 8.60747 87.2072 9.02101 87.0447C9.44046 86.8821 9.76242 86.6564 9.98692 86.3674C10.2114 86.0784 10.3266 85.7473 10.3325 85.3741C10.3266 85.0249 10.2203 84.7269 10.0135 84.48C9.80673 84.2272 9.48772 84.0105 9.05646 83.8298C8.63111 83.6432 8.0876 83.4716 7.42594 83.3151L5.52958 82.8636C3.95814 82.4964 2.72048 81.9034 1.81661 81.0846C0.912735 80.2598 0.463752 79.1461 0.46966 77.7433C0.463752 76.5995 0.765043 75.5971 1.37353 74.7362C1.98202 73.8753 2.82387 73.2041 3.89906 72.7224C4.97426 72.2408 6.2001 72 7.57659 72C8.98261 72 10.2025 72.2438 11.2364 72.7315C12.2761 73.2131 13.0825 73.8904 13.6556 74.7633C14.2286 75.6362 14.5211 76.6477 14.5329 77.7975H10.3325Z" fill="#101010"/>
<path d="M27.9758 72.2529H32.3534V84.182C32.3534 85.5607 32.0314 86.7617 31.3874 87.7852C30.7435 88.8026 29.8455 89.5913 28.6936 90.1511C27.5416 90.705 26.2035 90.9819 24.6793 90.9819C23.1374 90.9819 21.7904 90.705 20.6384 90.1511C19.4864 89.5913 18.5914 88.8026 17.9534 87.7852C17.3154 86.7617 16.9964 85.5607 16.9964 84.182V72.2529H21.3828V83.7937C21.3828 84.4319 21.5187 85.0008 21.7904 85.5005C22.0681 86.0002 22.4551 86.3915 22.9513 86.6744C23.4475 86.9574 24.0235 87.0989 24.6793 87.0989C25.335 87.0989 25.9081 86.9574 26.3984 86.6744C26.8947 86.3915 27.2816 86.0002 27.5593 85.5005C27.8369 85.0008 27.9758 84.4319 27.9758 83.7937V72.2529Z" fill="#101010"/>
<path d="M35.1026 72.2529H40.5347L45.1427 83.7034H45.3554L49.9634 72.2529H55.3955V90.7471H51.1242V79.3869H50.9736L46.6137 90.6298H43.8844L39.5245 79.3237H39.3739V90.7471H35.1026V72.2529Z" fill="#101010"/>
<path d="M75.2608 81.5C75.2608 83.5349 74.8768 85.2597 74.1088 86.6744C73.3408 88.0892 72.301 89.1638 70.9895 89.8983C69.6839 90.6328 68.2188 91 66.5942 91C64.9637 91 63.4956 90.6298 62.19 89.8893C60.8844 89.1488 59.8476 88.0741 59.0797 86.6654C58.3176 85.2506 57.9365 83.5288 57.9365 81.5C57.9365 79.4651 58.3176 77.7403 59.0797 76.3256C59.8476 74.9108 60.8844 73.8362 62.19 73.1017C63.4956 72.3672 64.9637 72 66.5942 72C68.2188 72 69.6839 72.3672 70.9895 73.1017C72.301 73.8362 73.3408 74.9108 74.1088 76.3256C74.8768 77.7403 75.2608 79.4651 75.2608 81.5ZM70.7768 81.5C70.7768 80.2959 70.6085 79.2785 70.2717 78.4477C69.9409 77.6169 69.4624 76.9878 68.8362 76.5604C68.2159 76.1329 67.4685 75.9192 66.5942 75.9192C65.7258 75.9192 64.9785 76.1329 64.3522 76.5604C63.726 76.9878 63.2446 77.6169 62.9078 78.4477C62.577 79.2785 62.4116 80.2959 62.4116 81.5C62.4116 82.7041 62.577 83.7215 62.9078 84.5523C63.2446 85.3831 63.726 86.0122 64.3522 86.4396C64.9785 86.8671 65.7258 87.0808 66.5942 87.0808C67.4685 87.0808 68.2159 86.8671 68.8362 86.4396C69.4624 86.0122 69.9409 85.3831 70.2717 84.5523C70.6085 83.7215 70.7768 82.7041 70.7768 81.5Z" fill="#101010"/>
<path d="M77.8217 90.7471V72.2529H85.3895C86.7482 72.2529 87.8855 72.4485 88.8011 72.8398C89.7227 73.2311 90.4139 73.779 90.8747 74.4834C91.3414 75.1877 91.5748 76.0035 91.5748 76.9306C91.5748 77.635 91.43 78.2641 91.1406 78.818C90.8511 79.3658 90.4523 79.8203 89.9443 80.1816C89.4362 80.5428 88.8484 80.7956 88.1808 80.9401V81.1207C88.9134 81.1568 89.5898 81.3585 90.2101 81.7258C90.8363 82.093 91.3385 82.6047 91.7166 83.2609C92.0947 83.9111 92.2837 84.6817 92.2837 85.5727C92.2837 86.5661 92.0356 87.4541 91.5393 88.2367C91.0431 89.0133 90.3253 89.6274 89.386 90.0789C88.4467 90.5244 87.3065 90.7471 85.9655 90.7471H77.8217ZM82.2082 87.144H84.9198C85.8709 87.144 86.571 86.9604 87.02 86.5932C87.4749 86.2259 87.7023 85.7142 87.7023 85.058C87.7023 84.5824 87.593 84.173 87.3744 83.8298C87.1558 83.4807 86.8457 83.2128 86.444 83.0261C86.0423 82.8335 85.5608 82.7372 84.9995 82.7372H82.2082V87.144ZM82.2082 79.8565H84.6362C85.1148 79.8565 85.5401 79.7752 85.9123 79.6126C86.2845 79.4501 86.5739 79.2153 86.7807 78.9083C86.9934 78.6012 87.0997 78.231 87.0997 77.7975C87.0997 77.1774 86.8841 76.6898 86.4528 76.3346C86.0216 75.9794 85.4397 75.8018 84.7071 75.8018H82.2082V79.8565Z" fill="#101010"/>
<path d="M111.522 81.5C111.522 83.5349 111.138 85.2597 110.37 86.6744C109.602 88.0892 108.562 89.1638 107.251 89.8983C105.945 90.6328 104.48 91 102.855 91C101.225 91 99.7569 90.6298 98.4513 89.8893C97.1457 89.1488 96.1089 88.0741 95.3409 86.6654C94.5788 85.2506 94.1978 83.5288 94.1978 81.5C94.1978 79.4651 94.5788 77.7403 95.3409 76.3256C96.1089 74.9108 97.1457 73.8362 98.4513 73.1017C99.7569 72.3672 101.225 72 102.855 72C104.48 72 105.945 72.3672 107.251 73.1017C108.562 73.8362 109.602 74.9108 110.37 76.3256C111.138 77.7403 111.522 79.4651 111.522 81.5ZM107.038 81.5C107.038 80.2959 106.87 79.2785 106.533 78.4477C106.202 77.6169 105.724 76.9878 105.097 76.5604C104.477 76.1329 103.73 75.9192 102.855 75.9192C101.987 75.9192 101.24 76.1329 100.614 76.5604C99.9873 76.9878 99.5058 77.6169 99.1691 78.4477C98.8383 79.2785 98.6729 80.2959 98.6729 81.5C98.6729 82.7041 98.8383 83.7215 99.1691 84.5523C99.5058 85.3831 99.9873 86.0122 100.614 86.4396C101.24 86.8671 101.987 87.0808 102.855 87.0808C103.73 87.0808 104.477 86.8671 105.097 86.4396C105.724 86.0122 106.202 85.3831 106.533 84.5523C106.87 83.7215 107.038 82.7041 107.038 81.5Z" fill="#101010"/>
<path d="M112.661 75.8831V72.2529H128V75.8831H122.497V90.7471H118.173V75.8831H112.661Z" fill="#101010"/>
</svg>
