<svg xmlns="http://www.w3.org/2000/svg" viewBox="0 10.079999923706055 273.3599853515625 41.190006256103516" data-asc="1.0087890625" width="273.3599853515625" height="41.190006256103516"><defs/><g fill="#FF4B33"><g transform="translate(0, 0)"><path d="M40.72 10.91L36.16 50.44L23.32 50.44Q21.56 41.33 20.21 29.74Q19.60 34.69 17.36 50.44L4.59 50.44L0 10.91L9.99 10.91L11.04 24.71L12.11 38.01Q12.67 27.69 14.94 10.91L25.63 10.91Q25.85 12.65 26.76 23.95L27.88 38.96Q28.74 24.63 30.74 10.91L40.72 10.91ZM66.41 10.91L66.41 50.44L56.13 50.44L56.13 33.84L53.05 33.84L53.05 50.44L42.77 50.44L42.77 10.91L53.05 10.91L53.05 25.05L56.13 25.05L56.13 10.91L66.41 10.91ZM94.02 34.06Q94.02 40.01 93.74 42.49Q93.46 44.97 91.98 47.02Q90.50 49.07 87.99 50.17Q85.47 51.27 82.13 51.27Q78.96 51.27 76.43 50.23Q73.90 49.19 72.36 47.12Q70.83 45.04 70.53 42.60Q70.24 40.16 70.24 34.06L70.24 27.29Q70.24 21.34 70.52 18.86Q70.80 16.38 72.28 14.33Q73.75 12.28 76.27 11.18Q78.78 10.08 82.13 10.08Q85.30 10.08 87.83 11.12Q90.36 12.16 91.89 14.23Q93.43 16.31 93.73 18.75Q94.02 21.19 94.02 27.29L94.02 34.06M83.74 21.07Q83.74 18.31 83.44 17.54Q83.13 16.77 82.18 16.77Q81.37 16.77 80.94 17.40Q80.52 18.02 80.52 21.07L80.52 39.53Q80.52 42.97 80.80 43.77Q81.08 44.58 82.10 44.58Q83.15 44.58 83.45 43.65Q83.74 42.72 83.74 39.23L83.74 21.07ZM145.34 10.91L140.77 50.44L127.93 50.44Q126.17 41.33 124.83 29.74Q124.22 34.69 121.97 50.44L109.20 50.44L104.61 10.91L114.60 10.91L115.65 24.71L116.72 38.01Q117.29 27.69 119.56 10.91L130.25 10.91Q130.47 12.65 131.37 23.95L132.50 38.96Q133.35 24.63 135.35 10.91L145.34 10.91ZM147.39 10.91L164.53 10.91L164.53 18.82L157.67 18.82L157.67 26.32L164.09 26.32L164.09 33.84L157.67 33.84L157.67 42.53L165.21 42.53L165.21 50.44L147.39 50.44L147.39 10.91ZM194.73 10.91L200.61 50.44L190.09 50.44L189.58 43.33L185.89 43.33L185.28 50.44L174.63 50.44L179.86 10.91L194.73 10.91M189.28 36.33Q188.50 29.61 187.72 19.75Q186.16 31.08 185.77 36.33L189.28 36.33ZM202.37 10.91L209.64 10.91Q216.92 10.91 219.49 11.47Q222.07 12.04 223.69 14.34Q225.32 16.65 225.32 21.70Q225.32 26.32 224.17 27.91Q223.02 29.49 219.65 29.81Q222.71 30.57 223.75 31.84Q224.80 33.11 225.06 34.17Q225.32 35.23 225.32 40.01L225.32 50.44L215.77 50.44L215.77 37.30Q215.77 34.13 215.27 33.37Q214.77 32.62 212.65 32.62L212.65 50.44L202.37 50.44L202.37 10.91M212.65 17.68L212.65 26.46Q214.38 26.46 215.08 25.99Q215.77 25.51 215.77 22.90L215.77 20.73Q215.77 18.85 215.10 18.26Q214.43 17.68 212.65 17.68ZM229.30 10.91L246.44 10.91L246.44 18.82L239.58 18.82L239.58 26.32L246.00 26.32L246.00 33.84L239.58 33.84L239.58 42.53L247.12 42.53L247.12 50.44L229.30 50.44L229.30 10.91ZM259.94 23.66L250.07 23.66Q250.12 18.46 250.95 16.06Q251.78 13.67 254.55 11.88Q257.32 10.08 261.62 10.08Q264.72 10.08 267.04 11.06Q269.36 12.04 270.73 13.78Q272.09 15.53 272.73 17.55Q273.36 19.58 273.36 23.90L273.36 28.74Q273.36 32.03 272.75 34.03Q272.14 36.04 270.09 37.55Q268.04 39.06 265.28 39.06Q261.69 39.06 259.94 36.25L259.94 40.50L250.73 40.50L250.73 29.64L259.72 29.64Q259.77 31.88 261.33 31.88Q262.55 31.88 262.88 30.90Q263.21 29.91 263.21 26.05L263.21 19.48Q263.21 17.31 262.90 16.56Q262.60 15.82 261.69 15.82Q260.57 15.82 260.25 16.81Q259.94 17.80 259.94 21.26L259.94 23.66M259.94 42.53L259.94 50.44L250.73 50.44L250.73 42.53L259.94 42.53Z"/></g></g></svg>