<svg width="128" height="100" viewBox="0 0 128 100" fill="none" xmlns="http://www.w3.org/2000/svg">
<g clip-path="url(#clip0_231_160)">
<path d="M5.03253 84.866C6.61193 84.2802 8.33637 84.2419 9.9392 84.7572C11.542 85.2727 12.9344 86.3127 13.8997 87.7167L10.7541 89.9683C10.274 89.2703 9.58108 88.7535 8.78413 88.4972C7.9871 88.2411 7.1296 88.2595 6.34425 88.5508C5.55881 88.8422 4.88913 89.3898 4.43917 90.1087C3.98921 90.8275 3.78415 91.6789 3.85531 92.529C3.92658 93.3787 4.27054 94.1802 4.83316 94.8106C5.39608 95.4412 6.14668 95.8656 6.96925 96.0168C7.79181 96.1678 8.64079 96.0385 9.38382 95.6478C10.1268 95.2573 10.7229 94.6264 11.08 93.8551L14.5532 95.5312C13.8351 97.082 12.6357 98.3486 11.1417 99.1341C9.64801 99.9192 7.94242 100.18 6.28886 99.8767C4.63511 99.5728 3.12478 98.7209 1.99295 97.4532C0.861106 96.1853 0.170817 94.571 0.0277534 92.8617C-0.115253 91.1527 0.297123 89.443 1.20181 87.9974C2.10654 86.5521 3.45322 85.4519 5.03253 84.866Z" fill="#D9D9D9"/>
<path d="M19.5658 90.0708H25.069V84.3961H29.1466V99.9997H25.069V93.3127H19.5658V99.9997H15.4899V84.3961H19.5658V90.0708Z" fill="#D9D9D9"/>
<path d="M49.3239 96.7579H56.6626V99.9997H45.2479V84.3961H49.3239V96.7579Z" fill="#D9D9D9"/>
<path d="M61.5534 96.7579H68.8921V99.9997H57.4774V84.3961H61.5534V96.7579Z" fill="#D9D9D9"/>
<path d="M82.3431 87.6379H73.7829V90.4761H81.5282V93.7179H73.7829V96.7579H82.7513V99.9997H69.7069V84.3961H82.3431V87.6379Z" fill="#D9D9D9"/>
<path d="M87.6438 84.6089L93.3495 93.7289V84.3961H97.427V99.9997H93.3495V99.7884L87.6438 90.4666V99.9997H83.5662V84.3961H87.6438V84.6089Z" fill="#D9D9D9"/>
<path d="M103.478 84.866C105.057 84.2801 106.783 84.2418 108.386 84.7572C109.989 85.2725 111.379 86.3128 112.345 87.7167L109.201 89.9683C108.721 89.2703 108.028 88.7535 107.231 88.4972C106.434 88.2412 105.576 88.2596 104.791 88.5508C104.006 88.8422 103.336 89.39 102.886 90.1087C102.436 90.8277 102.231 91.6789 102.302 92.529C102.373 93.3788 102.717 94.1804 103.28 94.8106C103.843 95.4412 104.593 95.8656 105.416 96.0168C106.238 96.1678 107.086 96.0382 107.829 95.6478C108.342 95.3782 108.785 94.9939 109.128 94.5283H107.006V91.4883H113.733V99.9997H110.878V98.2779C110.48 98.6047 110.048 98.8924 109.589 99.1341C108.095 99.9191 106.389 100.18 104.736 99.8767C103.082 99.5728 101.571 98.7209 100.44 97.4532C99.3079 96.1853 98.616 94.571 98.4729 92.8617C98.3299 91.1527 98.7439 89.443 99.6486 87.9974C100.553 86.5525 101.899 85.452 103.478 84.866Z" fill="#D9D9D9"/>
<path d="M127.592 87.6379H119.032V90.4761H126.777V93.7179H119.032V96.7579H128V99.9997H114.956V84.3961H127.592V87.6379Z" fill="#D9D9D9"/>
<path fill-rule="evenodd" clip-rule="evenodd" d="M45.0122 99.935H41.0406L39.9204 97.3003H34.3223L33.3033 99.935H29.4346L35.2384 84.4323H39.1071L45.0122 99.935ZM35.4647 94.0222H39.0311L37.1973 88.9561L35.4647 94.0222Z" fill="#D9D9D9"/>
<path d="M45.0438 67.375H40.3571V79.7352H36.2795V67.375H31.5912V64.1316H45.0438V67.375Z" fill="#D9D9D9"/>
<path d="M58.2923 67.375H49.7321V70.2115H57.4774V73.4534H49.7321V76.4934H58.7006V79.7352H45.6562V64.1316H58.2923V67.375Z" fill="#D9D9D9"/>
<path d="M64.3446 64.6014C65.924 64.0156 67.6484 63.9773 69.2512 64.4926C70.8541 65.0082 72.2464 66.0481 73.2117 67.4522L70.0661 69.7054C69.586 69.0072 68.8947 68.4891 68.0978 68.2327C67.3006 67.9764 66.4418 67.9949 65.6563 68.2863C64.871 68.5777 64.2012 69.1254 63.7512 69.8442C63.3014 70.5629 63.096 71.4144 63.1674 72.2645C63.2386 73.1144 63.5823 73.9171 64.1452 74.5476C64.708 75.1779 65.459 75.6011 66.2813 75.7523C67.1037 75.9032 67.9529 75.774 68.6959 75.3833C69.4388 74.9929 70.035 74.3633 70.3921 73.5921L73.8652 75.2666C73.1472 76.8173 71.9492 78.0841 70.4554 78.8695C68.9613 79.655 67.2547 79.9162 65.6009 79.6122C63.9469 79.3082 62.4368 78.4566 61.305 77.1887C60.1732 75.9208 59.4829 74.3065 59.3398 72.5972C59.1968 70.8883 59.6092 69.1784 60.5139 67.7329C61.4186 66.2876 62.7653 65.1874 64.3446 64.6014Z" fill="#D9D9D9"/>
<path d="M79.2861 69.8063H84.7893V64.1316H88.8669V79.7352H84.7893V73.0481H79.2861V79.7352H75.2101V64.1316H79.2861V69.8063Z" fill="#D9D9D9"/>
<path d="M71.8636 42.9509C73.7939 41.3576 76.7767 40.8502 80.6295 41.3174L83.0662 41.6123L82.4713 46.4561L80.0361 46.1596C78.7008 45.998 77.6888 46.0011 76.9317 46.084C76.6416 46.2122 76.4658 46.4585 76.419 46.721C76.3626 47.0395 76.4755 47.5788 77.2687 48.0391L78.0266 48.4791L78.0155 48.4948C79.0236 48.9988 80.4308 49.7423 81.3415 50.8568C81.8595 51.4908 82.242 52.2701 82.2956 53.2078C82.349 54.1403 82.0723 55.1383 81.438 56.2052L81.4159 56.2415C80.5036 58.1394 78.5077 59.2152 76.976 59.7292C74.7677 60.4699 72.0551 60.6217 69.9997 60.0209L67.6468 59.3319L69.0313 54.6521L71.3858 55.3395C72.3101 55.6101 73.9796 55.5854 75.4079 55.1062C75.541 55.0617 75.6654 55.0152 75.7813 54.9674C76.1227 54.7379 76.184 54.4898 76.1722 54.3336C76.1538 54.1015 75.951 53.7171 75.3162 53.4364L74.6753 53.1542L74.6912 53.1163C73.3613 52.5765 71.7759 51.6271 70.4174 49.6411L70.2085 49.3368L70.1009 48.9868C69.5229 47.1196 69.7857 44.6663 71.8636 42.9509Z" fill="#D9D9D9"/>
<path fill-rule="evenodd" clip-rule="evenodd" d="M95.0837 58.3259L94.9713 58.3827L94.8716 58.43L95.0235 58.5814L95.1675 58.7233L94.8811 59.0102L94.3827 58.5136V58.9267H93.9777V57.4776H95.0837V58.3259ZM94.3827 58.2234L94.4397 58.1951L94.6786 58.0768V57.8813H94.3827V58.2234Z" fill="#D9D9D9"/>
<path fill-rule="evenodd" clip-rule="evenodd" d="M94.5299 56.6057C95.4153 56.606 96.1342 57.3199 96.1343 58.2014C96.1343 59.0831 95.4153 59.7967 94.5299 59.797C93.6441 59.7968 92.9254 59.0832 92.9254 58.2014C92.9255 57.3198 93.6442 56.6059 94.5299 56.6057ZM94.5299 57.0093C93.867 57.0095 93.3306 57.5436 93.3305 58.2014C93.3305 58.8594 93.8669 59.3932 94.5299 59.3934C95.1925 59.393 95.7292 58.8593 95.7292 58.2014C95.7292 57.5437 95.1924 57.0097 94.5299 57.0093Z" fill="#D9D9D9"/>
<path d="M42.4742 46.527H36.259L35.6925 48.9663H41.7732L40.721 53.8448H34.5596L33.1846 59.7702H26.7004L30.9061 41.647H43.5264L42.4742 46.527Z" fill="#D9D9D9"/>
<path d="M47.5581 59.7702H41.0723L45.2796 41.647H51.7638L47.5581 59.7702Z" fill="#D9D9D9"/>
<path fill-rule="evenodd" clip-rule="evenodd" d="M64.1674 41.5287C66.7545 41.5678 68.8013 43.7489 68.6436 46.3331L68.5899 47.224L68.4474 48.6793C68.227 50.9386 66.3602 52.6881 64.0787 52.771L63.4142 52.7947L66.8367 59.7702H59.6515L57.4537 53.3749L55.9711 59.7702H49.4853L53.6926 41.647L64.0424 41.5287H64.1674ZM59.104 46.2684L58.3556 49.4913L61.8208 49.3652C61.9761 49.1988 62.0789 48.9819 62.0993 48.7408L62.1816 47.7774L62.2037 47.3422C62.2357 46.7386 61.7481 46.2337 61.1404 46.2416L59.104 46.2684Z" fill="#D9D9D9"/>
<path d="M99.2625 46.527H94.4492L91.3748 59.7702H84.889L87.9634 46.527H82.9618L83.8384 41.647H100.313L99.2625 46.527Z" fill="#D9D9D9"/>
<path fill-rule="evenodd" clip-rule="evenodd" d="M50.1024 9.09317C53.2986 7.04971 57.4946 5.79943 62.1041 5.79932H62.4553C64.1901 5.79932 65.8669 5.97693 67.4585 6.30862C68.7424 6.56037 69.9675 6.90612 71.1215 7.33666L78.0551 0.17502L96.4571 17.9483V20.5625L78.756 38.8592L72.7924 33.3296C69.8184 34.8079 66.2795 35.6742 62.4553 35.6742C56.8181 35.6742 51.7975 33.7999 48.3002 30.8398L34.2368 37.1169H30.9061L37.3919 0.348464L40.547 0L50.1024 9.09317ZM77.2339 10.9522C80.0076 13.4277 81.7292 16.6476 81.7292 20.1195C81.7291 20.4605 81.7111 20.7991 81.6785 21.1349C81.5829 23.9436 80.4764 26.5742 78.6263 28.8074L78.756 28.9272L87.87 19.3421L78.0551 10.107L77.2339 10.9522ZM55.4379 27.6548C57.3626 28.4106 59.6059 28.8578 62.1041 28.8579C63.962 28.8579 65.6792 28.6093 67.2291 28.172L63.1563 24.3956L63.0772 24.2443L55.4379 27.6548ZM40.547 26.6614L44.0897 25.1651C43.5277 23.7617 43.2242 22.2731 43.2242 20.736V20.7312C43.2124 20.5284 43.2068 20.3242 43.2068 20.1195C43.2068 17.7467 44.009 15.4901 45.403 13.5097L43.5264 11.6759L40.547 26.6614ZM68.7655 19.6906L73.7386 24.2884C74.6688 23.0435 75.1229 21.7028 75.1231 20.3875C75.1229 18.7066 74.3806 16.9855 72.851 15.4743L68.7655 19.6906ZM49.96 17.9577C49.6104 18.7587 49.4364 19.5775 49.4363 20.3875C49.4363 21.1597 49.592 21.9417 49.9094 22.7069L53.3413 21.2595L49.96 17.9577ZM62.2797 11.627C59.3588 11.6271 56.7268 12.3075 54.623 13.3946L60.2116 18.713L60.1768 18.6452L66.4886 12.1221C65.1816 11.8052 63.7682 11.627 62.2797 11.627Z" fill="#D9D9D9"/>
</g>
<defs>
<clipPath id="clip0_231_160">
<rect width="128" height="100" fill="white"/>
</clipPath>
</defs>
</svg>
